<svg id="Capa_1" enable-background="new 0 0 512.177 512.177" height="512" viewBox="0 0 512.177 512.177" width="512" xmlns="http://www.w3.org/2000/svg"><g id="Cutlery"><path d="m224.905 224.906h64v64h-64z" fill="#96f" transform="matrix(.707 .707 -.707 .707 256.906 -106.414)"/><path d="m502.81 457.55-200.65-200.65-45.25-45.25-26.23-26.23c14.44-24.53 11.35-56.53-9.72-77.59l-107.82-107.83-22.63 22.63 96.51 96.51c6.25 6.25 6.25 16.38 0 22.63-6.24 6.25-16.38 6.25-22.62 0l-96.51-96.51-22.63 22.63 96.51 96.51c6.25 6.24 6.25 16.37 0 22.62s-16.38 6.25-22.63 0l-96.51-96.51-22.63 22.63 107.83 107.82c21.06 21.07 53.06 24.16 77.59 9.72l26.23 26.23 45.25 45.25 200.65 200.65c12.5 12.49 32.76 12.49 45.26 0 12.49-12.5 12.49-32.76 0-45.26z" fill="#f9f"/><path d="m224.901 224.908h64.007v63.993h-64.007z" fill="#96f" transform="matrix(.707 -.707 .707 .707 -106.414 256.905)"/><g fill="#ce83ff"><path d="m211.65 256.91 45.25 45.25-.01.02-202.08 200.63c-12.5 12.49-32.76 12.49-45.26 0-12.49-12.5-12.49-32.76 0-45.26z"/><path d="m461.24 188.34c-34.37 34.36-82.37 44.42-119.59 29.07l-39.49 39.49-45.25-45.25 39.49-39.49c-15.35-37.22-5.29-85.22 29.07-119.59 44.46-44.46 134.74-68.91 169.71-33.94s10.52 125.25-33.94 169.71z"/></g></g></svg>